<?xml version="1.0" encoding="UTF-8"?>
<svg id="Modo_de_aislamiento" data-name="Modo de aislamiento" xmlns="http://www.w3.org/2000/svg" viewBox="0 0 831.17 296.13">
  <defs>
    <style>
      .cls-1 {
        fill: #e3057d;
      }

      .cls-1, .cls-2, .cls-3 {
        stroke-width: 0px;
      }

      .cls-2 {
        fill: #fff;
      }

      .cls-3 {
        fill: #53a5b1;
      }
    </style>
  </defs>
  <g id="Capa_1-2" data-name="Capa 1-2">
    <g>
      <path class="cls-2" d="M4.63,221.97h27.7c2.56,0,4.63-2.08,4.63-4.63v-69.31l35.7,71.8c.78,1.57,2.39,2.57,4.15,2.57h29.47c2.56,0,4.63-2.08,4.63-4.63V78.71c0-2.56-2.08-4.63-4.63-4.63h-27.7c-2.56,0-4.63,2.08-4.63,4.63v69.31l-35.7-71.38c-.78-1.57-2.39-2.57-4.15-2.57H4.63c-2.56,0-4.63,2.08-4.63,4.63v138.63c0,2.56,2.08,4.63,4.63,4.63Z"/>
      <path class="cls-2" d="M346.64,221.97h27.7c2.56,0,4.63-2.08,4.63-4.63v-69.31l35.7,71.8c.78,1.57,2.39,2.57,4.15,2.57h29.47c2.56,0,4.63-2.08,4.63-4.63V78.71c0-2.56-2.08-4.63-4.63-4.63h-27.7c-2.56,0-4.63,2.08-4.63,4.63v69.31l-35.7-71.38c-.78-1.57-2.39-2.57-4.15-2.57h-29.48c-2.56,0-4.63,2.08-4.63,4.63v138.63c0,2.56,2.08,4.63,4.63,4.63h0Z"/>
      <path class="cls-2" d="M157.57,111.06v18.16h31.91c2.56,0,4.63,2.08,4.63,4.63v27.7c0,2.56-2.08,4.63-4.63,4.63h-31.91v18.82h50.4c2.56,0,4.63,2.08,4.63,4.63v28.1c0,2.57-2.09,4.64-4.65,4.63l-83.17-.35c-2.55,0-4.62-2.08-4.62-4.63V78.71c0-2.56,2.08-4.63,4.63-4.63h83.17c2.56,0,4.63,2.08,4.63,4.63v27.7c0,2.56-2.08,4.63-4.63,4.63h-50.4Z"/>
      <path class="cls-2" d="M277.3,221.97h0c-30.63,0-55.46-24.83-55.46-55.46v-36.97c0-30.63,24.83-55.46,55.46-55.46h0c30.63,0,55.46,24.83,55.46,55.46v36.97c0,30.63-24.83,55.46-55.46,55.46ZM277.3,185c10.21,0,18.49-8.28,18.49-18.49v-36.97c0-10.21-8.28-18.49-18.49-18.49h0c-10.21,0-18.49,8.28-18.49,18.49v36.97c0,10.21,8.28,18.49,18.49,18.49h0Z"/>
      <polygon class="cls-3" points="342.01 55.59 415.96 .14 378.98 55.59 342.01 55.59"/>
      <polygon class="cls-3" points="110.92 240.46 36.97 295.92 73.95 240.46 110.92 240.46"/>
      <g>
        <path class="cls-1" d="M448.91,55.16c16.7-5.79,39.48-11.17,67.72-16,28.41-4.84,61.56-9.2,98.53-12.94,36.92-3.72,75.76-6.4,115.43-7.97,4.91-.19,8.77-4.23,8.77-9.11v-.37c-.2-5.03-4.43-8.98-9.48-8.77-40.04,1.57-79.26,4.28-116.55,8.04-37.38,3.78-70.95,8.19-99.77,13.1-29.23,4.99-52.99,10.63-70.63,16.75-3.77,1.3-6.14,4.84-6.14,8.63,0,.99.17,2,.5,2.99,1.31,3.77,4.84,6.14,8.63,6.14.99,0,2-.17,2.99-.5h0Z"/>
        <path class="cls-1" d="M558.57,151.45c3.2-1.6,5.04-4.83,5.04-8.17,0-1.37-.31-2.77-.97-4.08-4.4-8.79-16.12-6.96-21.14-6.17-7.07,1.11-15.65,3.04-25.52,5.72-.5.13-.99.27-1.49.41-.06.02-.12.03-.18.05h-.03c-.17.05-.34.1-.51.15-.02,0-.04,0-.06.02,0,0-.03,0-.03,0-.19.05-.38.1-.57.16l-.1.03c-.21.06-.43.11-.63.17-.03,0-.05.02-.09.03-.1.03-.22.06-.32.09-.05.02-.1.03-.15.04-.03,0-.05.02-.08.03l-.21.05s-.03,0-.03,0c-.03,0-.05.02-.08.02-.37.1-.73.2-1.1.3-.03,0-.05.02-.09.03-2.9.8-5.85,1.62-8.89,2.46,2.97-8.35,6-16.52,9.08-24.44,6.24-16.08,12.69-30.81,19.16-43.78,4.69-9.38,9.2-17.24,13.43-23.36,1.1-1.58,1.62-3.39,1.63-5.18,0-2.9-1.37-5.75-3.94-7.52-4.15-2.87-9.83-1.83-12.7,2.31-4.72,6.83-9.69,15.43-14.75,25.6-6.72,13.48-13.39,28.72-19.83,45.32-.1.28-.22.55-.32.83-.04.11-.09.22-.13.33l-.1.26c-.04.11-.09.23-.13.34-.06.15-.11.3-.17.45-.04.1-.09.22-.12.32-.02.04-.03.09-.05.13-.02.04-.03.09-.05.14h0s-.03.08-.04.12l-.03.08c-.03.06-.04.11-.07.17-.02.04-.03.09-.05.13-.03.07-.05.13-.08.2-.02.03-.03.08-.04.11-3.8,9.9-7.52,20.17-11.12,30.63,0,0,0,.03,0,.03,0,.02,0,.03-.02.04-.31.92-.63,1.85-.95,2.77-3.65,1.04-6.6,1.89-10.88,3.04-4.87,1.31-7.75,6.32-6.43,11.19,1.1,4.07,4.78,6.76,8.81,6.76.55,0,1.1-.07,1.65-.17-5.02,15.7-9.57,30.88-13.57,45.17-4.5,16.07-8.15,30.59-10.83,43.17-2.8,13.08-4.23,22.5-4.37,28.81-.11,5.04,3.89,9.22,8.93,9.32h.2c4.95,0,9.02-3.96,9.12-8.93.08-3.49.83-10.72,3.97-25.38,2.61-12.21,6.16-26.36,10.56-42.07,4.43-15.88,9.57-32.85,15.28-50.45.6-1.85,1.2-3.7,1.81-5.52,9.59-2.7,18.34-5.13,26.63-7.39,9.23-2.5,17.16-4.3,23.56-5.3,2.35-.37,3.82-.45,4.68-.46,2.68,1.99,6.36,2.43,9.54.84h.02Z"/>
        <path class="cls-1" d="M722.25,201.55c3.8-3.32,4.18-9.09.86-12.89-3.32-3.8-9.09-4.18-12.89-.86-1.73,1.51-3.51,3.1-5.35,4.72-17.08,15.13-40.48,35.84-57.97,32.66-3.2-.65-5.9-3.21-7.69-6.87.27-.19.55-.37.83-.57,18.58-12.69,53.17-36.31,47.7-65.41-.08-.4-.17-.79-.3-1.17-3.12-9.46-9.75-12.25-13.43-13.07-10.83-2.42-23.25,5.75-30.63,13.51-14.38,14.58-23.46,33.81-24.6,51.9-3.37-2.4-8.05-2.28-11.3.56-3.38,2.96-6.9,5.95-10.43,8.9-5.77,4.8-10.98,8.97-15.52,12.37-3.21,2.18-6.09,3.95-8.59,5.27-.09-.96-.15-2.18-.15-3.71,0-5.9,1.07-14.98,3.17-27.01,2.12-12.1,4.97-23.75,8.45-34.61,3.5-10.88,7.42-21.11,11.67-30.41,4.24-9.29,8.77-17.9,13.43-25.59,4.67-7.69,9.31-14.53,13.81-20.34,3.09-3.98,2.36-9.72-1.63-12.81-3.99-3.09-9.72-2.36-12.81,1.63-4.91,6.35-9.96,13.77-14.98,22.03-5.04,8.3-9.9,17.55-14.43,27.49-4.55,9.95-8.74,20.86-12.44,32.42-3.74,11.65-6.79,24.11-9.05,37.04-2.32,13.25-3.45,23.11-3.45,30.17,0,9.15,1.72,15.17,5.43,18.97,1.54,1.58,5.02,4.37,10.34,4.37,2.34,0,5.03-.54,8.08-1.96,3.97-1.83,8.42-4.44,13.61-7.98.11-.08.23-.16.33-.23,4.83-3.62,10.36-8.02,16.43-13.08,3.64-3.03,7.26-6.12,10.75-9.17.09-.08.17-.17.25-.24,3.02,13.17,11.91,23.22,23.64,25.54.03,0,.07.02.11.02,2.41.44,4.82.66,7.23.66,23.81,0,47.15-20.68,66.25-37.59,1.8-1.6,3.56-3.16,5.26-4.63h0ZM656.44,164.37s.09-.1.13-.14c4.9-5.18,10.84-8.28,13.11-8.34.06.11.14.26.22.46,2.02,14.21-17.2,30.05-31.77,40.49,2.56-11.44,9.04-23.08,18.31-32.47h0Z"/>
        <path class="cls-1" d="M827.9,161.07c-3.87-3.23-9.63-2.7-12.86,1.17-1.03,1.23-3.37,3.72-8.75,8.62-4.24,3.88-9.22,7.72-14.8,11.43-5.29,3.51-11.07,6.37-17.17,8.48-5.23,1.8-10.17,2.1-15.13.89-2.66-.65-5.03-1.71-7.17-3.18,3.1-5.16,5.93-9.83,8.45-13.92,3.57-5.78,7.06-10.85,10.38-15.06,3.05-3.88,6.75-7.47,10.97-10.68,2.37-1.79,3.61-4.52,3.61-7.28,0-1.92-.61-3.87-1.86-5.51-3.04-4.02-8.77-4.8-12.79-1.76-5.46,4.15-10.27,8.83-14.28,13.93-3.74,4.76-7.63,10.39-11.57,16.77-1.53,2.48-3.17,5.17-4.91,8.04-.67-1.33-1.3-2.68-1.87-4.06-2.44-5.88-4.3-11.68-5.51-17.25-1.29-5.93-2.43-10.97-3.37-14.98-1.16-4.9-6.08-7.95-10.98-6.78-4.2.99-7.03,4.75-7.03,8.89,0,.7.08,1.4.24,2.1.92,3.9,2.03,8.83,3.3,14.65,1.44,6.64,3.63,13.5,6.5,20.39,2.17,5.23,4.9,10.18,8.12,14.77-4.5,7.52-9.9,16.39-16.13,26.47-.92,1.5-1.37,3.16-1.37,4.79,0,3.06,1.54,6.05,4.33,7.77,1.5.92,3.16,1.37,4.79,1.37,3.06,0,6.05-1.54,7.77-4.33,5.18-8.39,9.8-15.94,13.82-22.61,3.7,2.38,7.78,4.13,12.23,5.22,3.41.83,6.85,1.24,10.31,1.24,5.02,0,10.07-.87,15.1-2.61,7.57-2.62,14.75-6.16,21.31-10.52,6.37-4.22,12.09-8.65,17.01-13.15,4.99-4.55,8.41-7.96,10.47-10.42,1.43-1.7,2.11-3.77,2.11-5.83,0-2.62-1.12-5.22-3.29-7.03v-.03Z"/>
      </g>
    </g>
  </g>
</svg>
