<?xml version="1.0" encoding="UTF-8"?>
<svg id="Capa_2" data-name="Capa 2" xmlns="http://www.w3.org/2000/svg" viewBox="0 0 222.18 150.91">
  <defs>
    <style>
      .cls-1 {
        fill: #fff;
      }

      .cls-2 {
        fill: #53a5b1;
      }

      .cls-3 {
        fill: #e3057d;
      }
    </style>
  </defs>
  <g id="Capa_1-2" data-name="Capa 1">
    <path class="cls-2" d="m1.22,150.91c-.36,0-.71-.16-.96-.46-.37-.47-.35-1.15.05-1.59L109.73,29c.27-.29.65-.44,1.04-.39.39.04.74.28.92.62l17.07,30.63L220.28.19c.51-.33,1.19-.23,1.59.23s.4,1.15,0,1.61l-108.5,124.87c-.25.3-.64.44-1.03.42-.39-.03-.75-.25-.95-.59l-17.55-28.97L1.82,150.74c-.18.13-.38.18-.6.18ZM110.39,31.91L7.43,144.7l86.24-49.64c.58-.33,1.31-.13,1.66.43l17.29,28.56L214.29,7.03l-85.28,55.59c-.29.18-.63.24-.96.16s-.6-.3-.78-.6l-16.88-30.27Z"/>
    <g>
      <path class="cls-3" d="m111.95,145.24h-6.53c-.68,0-1.22-.55-1.22-1.22v-15.89c0-.68.55-1.22,1.22-1.22h15.57v-4.36h-8.77c-.68,0-1.22-.55-1.22-1.22v-8.87c0-.68.55-1.22,1.22-1.22h11.74v-3.67h-17.31v15.58c0,.68-.55,1.22-1.22,1.22s-1.22-.55-1.22-1.22v-16.8c0-.68.55-1.22,1.22-1.22h19.76c.68,0,1.22.55,1.22,1.22v6.12c0,.68-.55,1.22-1.22,1.22h-11.74v6.42h8.77c.68,0,1.22.55,1.22,1.22v6.81c0,.68-.55,1.22-1.22,1.22h-15.57v13.44h4.09v-9.67c0-.68.55-1.22,1.22-1.22s1.22.55,1.22,1.22v10.9c0,.67-.55,1.22-1.22,1.22Z"/>
      <path class="cls-3" d="m154.44,145.24h-15.43c-.68,0-1.22-.55-1.22-1.22v-36.46h-4.44v36.46c0,.68-.55,1.22-1.22,1.22s-1.22-.55-1.22-1.22v-37.68c0-.68.55-1.22,1.22-1.22h6.89c.68,0,1.22.55,1.22,1.22v36.46h12.98v-4h-9.21c-.68,0-1.22-.55-1.22-1.22s.55-1.22,1.22-1.22h10.44c.68,0,1.22.55,1.22,1.22v6.45c0,.67-.55,1.22-1.22,1.22Z"/>
      <path class="cls-3" d="m181.04,145.24h-20.07c-.68,0-1.22-.55-1.22-1.22v-11.26c0-.68.55-1.22,1.22-1.22s1.22.55,1.22,1.22v10.03h17.62v-4.78h-11.3c-.68,0-1.22-.55-1.22-1.22v-6.99h-6.33c-.68,0-1.22-.55-1.22-1.22v-22.25c0-.68.55-1.22,1.22-1.22h20.07c.68,0,1.22.55,1.22,1.22v6.57c0,.68-.55,1.22-1.22,1.22h-12.21v5.5h8.77c.68,0,1.22.55,1.22,1.22v6.81c0,.68-.55,1.22-1.22,1.22h-4.99c-.68,0-1.22-.55-1.22-1.22s.55-1.22,1.22-1.22h3.77v-4.36h-8.77c-.68,0-1.22-.55-1.22-1.22v-7.95c0-.68.55-1.22,1.22-1.22h12.21v-4.12h-17.62v19.8h6.33c.68,0,1.22.55,1.22,1.22v6.99h11.3c.68,0,1.22.55,1.22,1.22v7.23c0,.67-.55,1.22-1.22,1.22Z"/>
      <path class="cls-3" d="m214.65,145.24h-6.57c-.46,0-.87-.25-1.08-.65l-8.56-16.19-8.13,14.39h4.51l3.02-5.7c.32-.6,1.06-.83,1.65-.51s.83,1.06.51,1.65l-3.36,6.36c-.21.4-.63.65-1.08.65h-7.35c-.44,0-.84-.23-1.06-.6-.21-.37-.23-.84,0-1.22l10.25-18.17c.21-.39.63-.62,1.07-.62h.03c.44,0,.86.25,1.07.65l9.26,17.52h3.88l-8.34-17.09c-.17-.34-.17-.74,0-1.07l8.34-17.08h-4.4l-5.78,10.87c-.21.39-.63.65-1.07.65s-.87-.24-1.08-.65l-5.82-10.87h-4.26l6.12,11.38c.32.6.09,1.34-.5,1.66s-1.34.09-1.66-.5l-7.08-13.17c-.2-.39-.19-.84.03-1.2.23-.36.62-.6,1.06-.6h7.04c.44,0,.86.24,1.07.65l5.09,9.5,5.05-9.5c.21-.4.63-.65,1.08-.65h7.09c.43,0,.82.21,1.04.58.23.36.24.81.07,1.18l-8.93,18.3,8.93,18.31c.18.39.16.83-.07,1.18-.24.35-.62.58-1.05.58Z"/>
    </g>
    <g>
      <path class="cls-1" d="m125.16,102.08c-6.69,0-12.97-2.61-17.7-7.34s-7.34-11.01-7.34-17.7,2.61-12.97,7.34-17.7,11.01-7.34,17.7-7.34,12.97,2.61,17.7,7.34,7.34,11.01,7.34,17.7-2.61,12.97-7.34,17.7c-4.72,4.73-11.01,7.34-17.7,7.34Zm0-47.62c-12.46,0-22.58,10.13-22.58,22.58s10.13,22.58,22.58,22.58,22.58-10.13,22.58-22.58c0-12.46-10.13-22.58-22.58-22.58Z"/>
      <path class="cls-1" d="m125.2,98.22c-7.66,0-15.06-4.16-18.82-11.42-1.39-2.68-2.18-5.58-2.36-8.62-.03-.67.48-1.26,1.16-1.29.67-.03,1.26.48,1.29,1.16.15,2.68.84,5.24,2.08,7.62,3.33,6.41,9.87,10.09,16.64,10.09,2.91,0,5.85-.68,8.61-2.11,4.43-2.3,7.7-6.2,9.21-10.96,1.51-4.77,1.07-9.84-1.22-14.28-.87-1.69-1.98-3.21-3.31-4.55-.48-.48-.47-1.26,0-1.74s1.26-.47,1.74,0c1.5,1.51,2.76,3.24,3.75,5.14,2.6,5.02,3.1,10.75,1.38,16.14-1.7,5.4-5.41,9.81-10.43,12.41-3.1,1.64-6.44,2.39-9.72,2.39Z"/>
      <g>
        <path class="cls-1" d="m13.26,101.66c-.68,0-1.22-.55-1.22-1.22v-45.48c0-.52.34-.99.84-1.16.5-.17,1.06,0,1.36.43l31.24,41.5v-40.76c0-.68.55-1.22,1.22-1.22s1.22.55,1.22,1.22v44.43c0,.52-.34.99-.84,1.16-.5.17-1.06,0-1.36-.43L14.48,58.61v41.82c0,.67-.55,1.22-1.22,1.22Z"/>
        <path class="cls-1" d="m17.39,101.66c-.68,0-1.22-.55-1.22-1.22v-46.31c0-.68.55-1.22,1.22-1.22s1.22.55,1.22,1.22v46.31c0,.67-.55,1.22-1.22,1.22Z"/>
      </g>
      <g>
        <path class="cls-1" d="m91.59,77.59h-32.1c-.68,0-1.22-.55-1.22-1.22v-22.25c0-.68.55-1.22,1.22-1.22s1.22.55,1.22,1.22v21.02h30.88c.68,0,1.22.55,1.22,1.22s-.55,1.22-1.22,1.22Z"/>
        <path class="cls-1" d="m63.78,77.59c-.68,0-1.22-.55-1.22-1.22v-22.25c0-.68.55-1.22,1.22-1.22h27.82c.68,0,1.22.55,1.22,1.22s-.55,1.22-1.22,1.22h-26.59v21.02c0,.67-.55,1.22-1.22,1.22Z"/>
      </g>
      <g>
        <path class="cls-1" d="m59.49,101.88c-.68,0-1.22-.55-1.22-1.22v-21.11c0-.68.55-1.22,1.22-1.22h32.1c.68,0,1.22.55,1.22,1.22s-.55,1.22-1.22,1.22h-30.88v19.88c0,.67-.55,1.22-1.22,1.22Z"/>
        <path class="cls-1" d="m91.59,101.88h-27.81c-.68,0-1.22-.55-1.22-1.22v-21.11c0-.68.55-1.22,1.22-1.22s1.22.55,1.22,1.22v19.88h26.59c.68,0,1.22.55,1.22,1.22,0,.68-.56,1.22-1.23,1.22Z"/>
      </g>
      <g>
        <path class="cls-1" d="m156.83,101.81c-.68,0-1.22-.55-1.22-1.22v-45.48c0-.52.34-.99.84-1.16.5-.17,1.06,0,1.36.43l31.24,41.5v-40.76c0-.68.55-1.22,1.22-1.22s1.22.55,1.22,1.22v44.43c0,.52-.34.99-.84,1.16-.5.17-1.06,0-1.36-.43l-31.24-41.5v41.82c0,.66-.56,1.22-1.22,1.22Z"/>
        <path class="cls-1" d="m160.97,101.81c-.68,0-1.22-.55-1.22-1.22v-46.31c0-.68.55-1.22,1.22-1.22s1.22.55,1.22,1.22v46.31c0,.67-.55,1.22-1.22,1.22Z"/>
      </g>
    </g>
  </g>
</svg>